<svg width="38" height="38" viewBox="0 0 38 38" fill="none" xmlns="http://www.w3.org/2000/svg">
<path d="M24.1242 31.26C24.727 31.1666 25.3465 31.1437 25.9635 31.1959C25.5863 28.1237 27.0785 25.1149 29.7895 23.5598C28.2935 21.0274 28.2297 17.9354 29.5115 15.3833C28.0549 14.4628 26.9396 13.0772 26.3586 11.4581C26.2516 11.16 26.4059 10.8324 26.7036 10.7254C27.0017 10.6185 27.3293 10.773 27.4362 11.0707C27.9549 12.5137 28.9699 13.738 30.296 14.5202C30.7001 14.7585 30.8628 15.2789 30.6306 15.7155C29.3938 18.0137 29.4407 20.8783 30.8993 23.1788C31.173 23.6065 31.0298 24.195 30.5642 24.4414C28.0593 25.764 26.6781 28.5208 27.1405 31.338C27.2408 31.9126 26.7457 32.4423 26.1461 32.3675C25.5298 32.2889 24.9035 32.2988 24.2999 32.3918C24.2704 32.3965 24.2405 32.3988 24.2115 32.3988C23.934 32.3988 23.6896 32.1964 23.6462 31.9137C23.5972 31.6015 23.812 31.309 24.1242 31.26Z" fill="#1F2041"/>
<path d="M28.0985 6.039C28.0063 6.25788 27.7937 6.38951 27.5702 6.38951C27.162 6.38951 26.8834 5.97203 27.0426 5.59426L28.8757 1.24145C28.9984 0.949791 29.3341 0.81295 29.626 0.935875C29.9174 1.05851 30.0542 1.39452 29.9316 1.68618L28.0985 6.039Z" fill="#1F2041"/>
<path d="M37.5993 13.8383C31.5694 15.7402 31.9784 15.6236 31.8509 15.6236C31.2006 15.6236 31.0559 14.7008 31.6789 14.5043L37.2546 12.7456C37.5567 12.6505 37.8782 12.8181 37.9733 13.1196C38.0684 13.4214 37.9011 13.7432 37.5993 13.8383Z" fill="#1F2041"/>
<path d="M32.4894 23.7193L37.7598 27.4777C38.2132 27.801 37.9813 28.5171 37.4267 28.5171C37.1669 28.5171 37.5334 28.7235 31.8243 24.6519C31.5666 24.4684 31.5068 24.1107 31.6904 23.8529C31.8739 23.5958 32.2316 23.5355 32.4894 23.7193Z" fill="#1F2041"/>
<path d="M26.9622 32.7421C27.2675 32.6572 27.5829 32.8357 27.6676 33.1404L28.5843 36.4348C28.6855 36.7989 28.4118 37.1613 28.032 37.1613C27.7812 37.1613 27.551 36.9955 27.4803 36.7418L26.5638 33.4475C26.4789 33.1428 26.6572 32.827 26.9622 32.7421Z" fill="#1F2041"/>
<path d="M32.477 9.43882C28.7919 11.8405 28.9994 11.7469 28.7658 11.7469C28.1984 11.7469 27.9757 11.0047 28.4527 10.6939L31.8516 8.47891C32.1166 8.30612 32.4715 8.38091 32.6443 8.6459C32.8171 8.91117 32.7423 9.26603 32.477 9.43882Z" fill="#1F2041"/>
<path d="M34.639 18.9823C34.9556 18.9823 35.2119 19.2389 35.2119 19.5552C35.2119 19.8718 34.9556 20.1281 34.639 20.1281H31.6488C31.3325 20.1281 31.076 19.8718 31.076 19.5552C31.076 19.2389 31.3325 18.9823 31.6488 18.9823H34.639Z" fill="#1F2041"/>
<path d="M29.0651 27.0368C29.3202 26.8501 29.6789 26.9052 29.8659 27.1603L31.3204 29.1462C31.5074 29.4017 31.452 29.76 31.1969 29.947C30.9417 30.1337 30.5834 30.0786 30.3961 29.8232L28.9416 27.8376C28.7546 27.5821 28.81 27.2238 29.0651 27.0368Z" fill="#1F2041"/>
<path d="M0.572884 16.9627C0.256584 16.9627 7.62939e-06 16.707 7.62939e-06 16.3899V16.2449C7.62939e-06 15.1586 0.883675 14.2743 1.97057 14.2743H8.76333C9.98301 12.765 11.8011 11.7576 13.8534 11.6155C14.4057 10.4248 14.591 9.08483 14.3726 7.77267C14.2784 7.17747 14.7808 6.66895 15.3679 6.74288C17.0683 6.96032 18.8008 6.51877 20.2122 5.42926C20.5293 5.184 20.9793 5.18023 21.3014 5.42926C22.717 6.52138 24.4481 6.95945 26.1462 6.74288C26.7399 6.67185 27.2357 7.17689 27.1406 7.77643C27.0707 8.19826 27.0429 8.63691 27.0536 9.00858C27.0612 9.32459 26.8107 9.58668 26.4947 9.59421C26.176 9.60262 25.9154 9.35155 25.9079 9.03525C25.9032 8.66619 25.9116 8.33771 25.9635 7.91473C24.1446 8.06896 22.3016 7.58625 20.7566 6.45354C19.2244 7.57726 17.384 8.0707 15.5506 7.91473C15.6993 9.12687 15.5607 10.3976 15.1038 11.5987C15.5636 11.5987 15.1319 11.5993 16.4229 11.5993C17.4861 11.5993 18.4828 12.1203 19.0893 12.9932L20.1205 14.4773H21.3884C23.3934 14.4773 24.2098 17.0715 22.5663 18.2216C23.3551 19.2038 23.0832 20.6789 21.9583 21.3045C22.7107 22.3799 22.263 23.8845 21.0538 24.3794C21.8018 25.6461 21.001 27.5128 19.3514 27.5128C17.4058 27.5128 16.0501 27.5134 15.0977 27.5134C15.548 28.6887 15.7037 29.9487 15.5506 31.1959C17.3788 31.0403 19.2201 31.5302 20.7566 32.6571C21.0813 32.4203 21.4252 32.2072 21.7809 32.0239C22.0621 31.8787 22.4074 31.9894 22.5524 32.2704C22.6976 32.5516 22.5869 32.8969 22.3056 33.0418C21.9537 33.2236 21.6159 33.4385 21.3014 33.6814C20.979 33.9307 20.529 33.9264 20.2122 33.6814C17.9024 31.8984 15.5169 32.3745 15.2534 32.3745C14.7008 32.3745 14.2796 31.8723 14.3735 31.3339C14.5921 30.0171 14.4011 28.6937 13.854 27.5128C13.1504 27.5123 11.2647 27.6772 9.49653 26.2859C9.35679 26.2302 8.43399 25.3541 8.1461 24.8363H1.97057C0.883675 24.8363 7.62939e-06 23.9518 7.62939e-06 22.8658V18.6814C7.62939e-06 18.3654 0.256584 18.1085 0.572884 18.1085C0.889183 18.1085 1.14576 18.3654 1.14576 18.6814V22.8658C1.14576 23.3201 1.51627 23.6906 1.97057 23.6906H7.55728C7.07137 22.4228 7.16705 21.729 7.16705 18.7855C7.16705 17.5701 7.47001 16.4244 8.00491 15.4201H1.97057C1.51627 15.4201 1.14576 15.7903 1.14576 16.2449V16.3899C1.14576 16.707 0.889183 16.9627 0.572884 16.9627ZM22.3004 16.536C22.3004 16.0324 21.8911 15.623 21.3884 15.623H20.756C20.9071 16.3043 20.4841 17.1837 19.3207 17.4478H21.3884C21.8911 17.4478 22.3004 17.0384 22.3004 16.536ZM17.3112 26.3671C17.3257 26.3671 19.365 26.3677 19.3795 26.3662C20.4763 26.3097 20.4467 24.5423 19.336 24.5423H17.3112C16.1777 24.5423 16.1785 26.3671 17.3112 26.3671ZM17.2028 23.3896C18.9336 23.3896 18.5303 23.3896 20.2687 23.3896C20.772 23.3896 21.1813 22.9809 21.1813 22.4776C21.1813 22.0131 20.8355 21.5658 20.1968 21.5658H17.2028C16.6992 21.5658 16.2907 21.9743 16.2907 22.4776C16.2907 22.9809 16.6992 23.3896 17.2028 23.3896ZM17.2028 20.4183C21.3388 20.4183 21.0952 20.4481 21.3425 20.3336C22.2248 19.9257 21.9346 18.5935 20.9593 18.5935H17.2028C16.6992 18.5935 16.2907 19.0029 16.2907 19.5065C16.2907 20.0089 16.6992 20.4183 17.2028 20.4183ZM17.2028 17.4478H18.2422C17.2707 17.2295 16.8706 16.5824 16.603 16.2043H16.3534C16.1197 16.8001 16.5618 17.4478 17.2028 17.4478ZM10.1291 25.3266C10.8696 25.9403 11.9443 26.3671 13.1782 26.3671C14.2845 26.3671 14.4318 26.3671 15.5077 26.3671C15.2038 25.7269 15.2099 24.7195 15.8553 24.0303C14.938 23.2377 14.9044 21.8276 15.7814 20.992C14.9333 20.1823 14.9328 18.8313 15.7805 18.0207C15.7193 17.9635 15.6622 17.9015 15.6086 17.836C14.9325 18.9533 13.9598 19.6946 12.7297 20.0837C12.4273 20.1785 12.1067 20.0098 12.0119 19.708C11.917 19.4065 12.0852 19.0847 12.3867 18.9901C13.0866 18.7681 13.6879 18.3973 14.1726 17.8542C15.2062 16.7033 15.2923 15.3024 15.3343 15.0586C15.4062 14.6637 15.8996 14.4179 16.3235 14.4567C16.917 14.5132 17.0735 14.8838 17.7342 15.8202C18.3463 16.6986 19.6332 16.3473 19.6332 15.8805C19.6332 15.7463 19.6996 15.8805 18.1482 13.6473C17.7557 13.0819 17.1103 12.745 16.4229 12.745C14.1717 12.745 13.8696 12.7094 13.0857 12.8781C10.3611 13.4623 8.31251 15.8898 8.31251 18.7855C8.31251 21.5779 7.95591 23.6103 10.1291 25.3266Z" fill="#1F2041"/>
</svg>
