<svg width="34" height="29" viewBox="0 0 34 29" fill="none" xmlns="http://www.w3.org/2000/svg">
<path d="M13.4241 27.7391C6.68404 27.7391 1.22018 22.094 1.22018 15.1304C1.22018 8.16683 6.68404 2.52173 13.4241 2.52173C20.1641 2.52173 25.6279 8.16683 25.6279 15.1304C25.6279 22.094 20.1641 27.7391 13.4241 27.7391Z" stroke="#1F2041" stroke-width="2" stroke-linecap="round" stroke-linejoin="round"/>
<path d="M1.22001 15.1304H6.10156" stroke="#1F2041" stroke-width="2" stroke-linecap="round" stroke-linejoin="round"/>
<path d="M20.7464 15.1304H25.6279" stroke="#1F2041" stroke-width="2" stroke-linecap="round" stroke-linejoin="round"/>
<path d="M13.4238 7.56521V2.52173" stroke="#1F2041" stroke-width="2" stroke-linecap="round" stroke-linejoin="round"/>
<path d="M13.4238 27.7392V22.6957" stroke="#1F2041" stroke-width="2" stroke-linecap="round" stroke-linejoin="round"/>
<path d="M25.5915 4.96783V0L34 8.68739L25.5915 17.3874V12.3439C19.575 12.3439 15.3769 14.3235 12.3625 18.6483C13.5707 12.4196 17.1709 6.20348 25.5915 4.96783Z" fill="#1F2041"/>
</svg>
