<svg width="53" height="53" viewBox="0 0 53 53" fill="none" xmlns="http://www.w3.org/2000/svg">
<path d="M6.05528 51C5.72327 51 5.39028 50.8744 5.13707 50.6196L2.38061 47.8639C2.13702 47.6203 2 47.291 2 46.9466C2 46.6021 2.13702 46.271 2.38061 46.0274L12.026 36.3806C12.2696 36.137 12.6008 36 12.9451 36C13.2895 36 13.6197 36.137 13.8633 36.3806L16.6189 39.1361C17.127 39.6443 17.127 40.4664 16.6189 40.9748L6.97361 50.6197C6.7204 50.8744 6.38741 51 6.05528 51Z" fill="#965353"/>
<path d="M8.53724 44.4648C7.59188 43.5211 6.33578 43 4.99995 43C3.66318 43 2.40695 43.5211 1.46266 44.4648C-0.487553 46.415 -0.487553 49.5873 1.46266 51.5352C2.40695 52.4789 3.66318 53 4.99995 53C6.33578 53 7.59202 52.4789 8.53724 51.5352C10.4876 49.5873 10.4876 46.415 8.53724 44.4648Z" fill="#FFCE54"/>
<path d="M7 40.7156L11.9999 45L14 43.2865L9.0001 39L7 40.7156Z" fill="#7F4545"/>
<path d="M19.9728 40C19.6193 40 19.2812 39.8597 19.0318 39.6104L13.3897 33.9665C13.1393 33.7171 13 33.3801 13 33.0275C13 32.6748 13.1393 32.3358 13.3897 32.0864L44.1467 1.33023C44.3494 1.12762 44.6143 0.995074 44.8988 0.954177L51.4821 0.0131583C51.8971 -0.0453202 52.3141 0.0930829 52.6102 0.389216C52.9063 0.685349 53.0465 1.10418 52.9863 1.51914L52.0452 8.10202C52.0063 8.38643 51.8738 8.64953 51.6691 8.85401L20.9128 39.6104C20.6634 39.8597 20.3254 40 19.9728 40Z" fill="#FFCE54"/>
<path d="M17.335 37C16.9935 37 16.6512 36.8689 16.391 36.609C15.8697 36.0867 15.8697 35.2416 16.391 34.7193L39.7204 11.3917C40.2428 10.8694 41.088 10.8694 41.6082 11.3917C42.1306 11.9122 42.1306 12.7592 41.6082 13.2795L18.2798 36.609C18.0187 36.8689 17.6774 37 17.335 37Z" fill="#F6BB42"/>
<path d="M24.6264 41.0143L11.986 28.3736C11.6951 28.0837 11.2837 27.9509 10.8779 28.0164C10.4729 28.0819 10.1241 28.3382 9.94079 28.7067L8.13497 32.3166C7.88897 32.8085 7.98533 33.4034 8.37439 33.7905L19.2087 44.6259C19.4537 44.871 19.781 45 20.112 45C20.3056 45 20.5011 44.957 20.6825 44.8653L24.2944 43.0603C24.661 42.8752 24.9181 42.5273 24.9836 42.1213C25.0491 41.7173 24.9163 41.304 24.6264 41.0143Z" fill="#ED5564"/>
</svg>
